<svg width="20" height="18" viewBox="0 0 20 18" fill="none" xmlns="http://www.w3.org/2000/svg">
<path fill-rule="evenodd" clip-rule="evenodd" d="M1.875 0C0.839466 0 0 0.839466 0 1.875V15C0 16.6569 1.34315 18 3 18H18C16.3431 18 15 16.6569 15 15V1.875C15 0.839466 14.1605 0 13.125 0H1.875ZM9.75 6.75C9.33579 6.75 9 7.08579 9 7.5C9 7.91421 9.33579 8.25 9.75 8.25H11.25C11.6642 8.25 12 7.91421 12 7.5C12 7.08579 11.6642 6.75 11.25 6.75H9.75ZM9 4.5C9 4.08579 9.33579 3.75 9.75 3.75H11.25C11.6642 3.75 12 4.08579 12 4.5C12 4.91421 11.6642 5.25 11.25 5.25H9.75C9.33579 5.25 9 4.91421 9 4.5ZM3.75 9.75C3.33579 9.75 3 10.0858 3 10.5C3 10.9142 3.33579 11.25 3.75 11.25H11.25C11.6642 11.25 12 10.9142 12 10.5C12 10.0858 11.6642 9.75 11.25 9.75H3.75ZM3 13.5C3 13.0858 3.33579 12.75 3.75 12.75H11.25C11.6642 12.75 12 13.0858 12 13.5C12 13.9142 11.6642 14.25 11.25 14.25H3.75C3.33579 14.25 3 13.9142 3 13.5ZM3.75 3.75C3.33579 3.75 3 4.08579 3 4.5V7.5C3 7.91421 3.33579 8.25 3.75 8.25H6.75C7.16421 8.25 7.5 7.91421 7.5 7.5V4.5C7.5 4.08579 7.16421 3.75 6.75 3.75H3.75Z" fill="#01573E"/>
<path d="M16.5 3.75H18.375C18.9963 3.75 19.5 4.25368 19.5 4.875V15C19.5 15.8284 18.8284 16.5 18 16.5C17.1716 16.5 16.5 15.8284 16.5 15V3.75Z" fill="#01573E"/>
</svg>
